<svg width="216" height="144" viewBox="0 0 216 144" fill="none" xmlns="http://www.w3.org/2000/svg">
<g clip-path="url(#clip0_10010_5699)">
<path fill-rule="evenodd" clip-rule="evenodd" d="M108 3C91.4315 3 78 16.4315 78 33C78 48.7139 90.0816 61.606 105.463 62.8942L102.284 68.3994C101.36 69.9994 102.515 71.9994 104.363 71.9994H111.637C113.485 71.9994 114.639 69.9994 113.716 68.3994L110.537 62.8942C125.918 61.6062 138 48.714 138 33C138 16.4315 124.569 3 108 3ZM81 33C81 18.0883 93.0883 6 108 6C122.912 6 135 18.0883 135 33C135 47.9117 122.912 60 108 60C93.0883 60 81 47.9117 81 33ZM105.402 68.9994L108 64.4994L110.598 68.9994H105.402Z" fill="#232F46"/>
<path fill-rule="evenodd" clip-rule="evenodd" d="M33 85.5C20.5736 85.5 10.5 95.5736 10.5 108C10.5 108.272 10.5048 108.543 10.5144 108.813C10.5368 109.444 10.1617 110.021 9.57623 110.257C5.71835 111.813 3 115.591 3 120C3 125.522 7.26404 130.05 12.6781 130.468C12.7506 130.474 12.8215 130.485 12.8905 130.5H52.5374C52.5426 130.5 52.5478 130.5 52.5531 130.5C61.6413 130.471 69 123.095 69 114C69 105.294 62.2562 98.1614 53.7084 97.5435C53.2116 97.5076 52.7649 97.2273 52.5165 96.7955C48.6302 90.0419 41.3446 85.5 33 85.5ZM52.5838 133.5C52.5752 133.5 52.5665 133.5 52.5578 133.5H12.5626C12.4025 133.5 12.2483 133.475 12.1037 133.429C5.3032 132.729 0 126.985 0 120C0 114.697 3.05697 110.112 7.50018 107.904C7.55213 93.8647 18.9489 82.5 33 82.5C42.1802 82.5 50.2255 87.3518 54.7144 94.6245C64.442 95.7247 72 103.979 72 114C72 124.742 63.3149 133.455 52.5838 133.5Z" fill="#232F46"/>
<g clip-path="url(#clip1_10010_5699)">
<path fill-rule="evenodd" clip-rule="evenodd" d="M105.574 80.2325C107.535 75.3923 107.535 69.9788 105.574 65.1386L104.945 63.586C102.692 58.0233 102.692 51.802 104.945 46.2393L105.101 45.8554C107.308 40.4071 106.857 34.2163 104.942 28.3907C104.069 25.7323 103.35 22.7952 103.35 20.25L106.35 20.25C106.35 22.3146 106.95 24.8905 107.792 27.4542C109.843 33.6934 110.442 40.6597 107.881 46.9818L107.726 47.3657C105.765 52.2059 105.765 57.6194 107.726 62.4596L108.355 64.0122C110.608 69.5749 110.608 75.7962 108.355 81.3589L107.726 82.9115C105.765 87.7517 105.765 93.1652 107.726 98.0054L108.355 99.558C110.608 105.121 110.608 111.342 108.355 116.905L107.726 118.457C105.765 123.298 105.765 128.711 107.726 133.551L107.983 134.185C110.479 140.349 110.008 147.148 108.011 153.261C107.063 156.163 106.35 159.165 106.35 161.55L103.35 161.55C103.35 158.681 104.184 155.314 105.159 152.329C107.009 146.666 107.357 140.63 105.202 135.312L104.945 134.678C102.692 129.115 102.692 122.894 104.945 117.331L105.574 115.778C107.535 110.938 107.535 105.525 105.574 100.684L104.945 99.1318C102.692 93.5691 102.692 87.3477 104.945 81.7851L105.574 80.2325Z" fill="#232F46"/>
</g>
<path fill-rule="evenodd" clip-rule="evenodd" d="M163.778 100.509C166.642 91.3764 175.171 84.75 185.25 84.75C195.521 84.75 204.181 91.6308 206.879 101.032C212.305 103.936 216 109.66 216 116.25C216 125.777 208.277 133.5 198.75 133.5C198.36 133.5 197.973 133.487 197.589 133.462C197.48 133.487 197.367 133.5 197.25 133.5H154.5C148.701 133.5 144 128.799 144 123C144 118.241 147.164 114.224 151.504 112.934C151.668 106.196 157.06 100.753 163.778 100.509ZM196.796 130.5H154.5C150.358 130.5 147 127.142 147 123C147 119.276 149.716 116.183 153.276 115.599C154.044 115.473 154.588 114.781 154.529 114.005C154.51 113.756 154.5 113.504 154.5 113.25C154.5 107.865 158.865 103.5 164.25 103.5C164.442 103.5 164.632 103.506 164.821 103.516C165.537 103.558 166.182 103.086 166.36 102.391C168.518 93.9717 176.16 87.75 185.25 87.75C194.356 87.75 202.008 93.9934 204.151 102.435C204.26 102.864 204.553 103.223 204.952 103.416C209.718 105.724 213 110.605 213 116.25C213 124.12 206.62 130.5 198.75 130.5C198.291 130.5 197.838 130.478 197.391 130.436C197.188 130.417 196.986 130.44 196.796 130.5Z" fill="#232F46"/>
</g>
<defs>
<clipPath id="clip0_10010_5699">
<rect width="216" height="144" fill="white"/>
</clipPath>
<clipPath id="clip1_10010_5699">
<rect width="72" height="72" fill="white" transform="translate(72 72)"/>
</clipPath>
</defs>
</svg>
